{
  "accessors": [
    {
      "bufferView": 0,
      "componentType": 5126,
      "count": 1825,
      "max": [
        50.3239631652832,
        8.051264762878418,
        22.039653778076172
      ],
      "min": [
        41.91287612915039,
        -4.350983619689941,
        12.329715728759766
      ],
      "type": "VEC3"
    },
    {
      "bufferView": 0,
      "byteOffset": 12,
      "componentType": 5126,
      "count": 1825,
      "type": "VEC3"
    },
    {
      "bufferView": 1,
      "componentType": 5125,
      "count": 10368,
      "type": "SCALAR"
    },
    {
      "bufferView": 0,
      "byteOffset": 58400,
      "componentType": 5126,
      "count": 11720,
      "max": [
        88.71168518066406,
        16.566478729248047,
        33.117027282714844
      ],
      "min": [
        -17.822437286376953,
        -13.92386245727539,
        -14.949665069580078
      ],
      "type": "VEC3"
    },
    {
      "bufferView": 0,
      "byteOffset": 58412,
      "componentType": 5126,
      "count": 11720,
      "type": "VEC3"
    },
    {
      "bufferView": 1,
      "byteOffset": 41472,
      "componentType": 5125,
      "count": 68256,
      "type": "SCALAR"
    }
  ],
  "asset": {
    "version": "2.0"
  },
  "bufferViews": [
    {
      "buffer": 0,
      "byteLength": 433440,
      "byteStride": 32,
      "target": 34962
    },
    {
      "buffer": 0,
      "byteLength": 314496,
      "byteOffset": 433440,
      "target": 34963
    }
  ],
  "buffers": [
    {
      "byteLength": 747936,
      "uri": "pipe.bin"
    }
  ],
  "materials": [
    {
      "name": "deco",
      "pbrMetallicRoughness": {
        "baseColorFactor": [
          0.5019609928131104,
          0.7019609808921814,
          1.0,
          1.0
        ],
        "metallicFactor": 0.0,
        "roughnessFactor": 0.0
      }
    },
    {
      "name": "pipe",
      "pbrMetallicRoughness": {
        "baseColorFactor": [
          0.5019609928131104,
          1.0,
          0.8196079730987549,
          1.0
        ],
        "metallicFactor": 0.0,
        "roughnessFactor": 0.0
      }
    }
  ],
  "meshes": [
    {
      "name": "pipas",
      "primitives": [
        {
          "attributes": {
            "NORMAL": 1,
            "POSITION": 0
          },
          "indices": 2,
          "material": 0,
          "mode": 4
        },
        {
          "attributes": {
            "NORMAL": 4,
            "POSITION": 3
          },
          "indices": 5,
          "material": 1,
          "mode": 4
        }
      ]
    }
  ],
  "nodes": [
    {
      "matrix": [
        0.01,
        0.0,
        0.0,
        0.0,
        0.0,
        0.01,
        0.0,
        0.0,
        0.0,
        0.0,
        0.01,
        0.0,
        0.0,
        0.0,
        0.0,
        1.0
      ],
      "mesh": 0,
      "name": "pipas"
    },
    {
      "children": [
        0
      ],
      "matrix": [
        0.32685551047325134,
        0.0,
        0.0,
        0.0,
        0.0,
        0.05675787851214409,
        -0.32188984751701355,
        0.0,
        0.0,
        0.32188984751701355,
        0.05675787851214409,
        0.0,
        0.0,
        0.10007423400878906,
        0.0,
        1.0
      ]
    }
  ],
  "scenes": [
    {
      "nodes": [
        1
      ]
    }
  ]
}
